<svg width="64" height="64" viewBox="0 0 64 64" fill="none" xmlns="http://www.w3.org/2000/svg">
<path d="M53.8 18.375H45.3625L40.3125 13.275C40.3125 13.275 40.2875 13.25 40.275 13.25L40.25 13.225C39.5 12.475 38.4875 12 37.3375 12H26.8375C25.6125 12 24.525 12.525 23.7625 13.3625V13.375L18.825 18.375H10.2C7.875 18.375 6 20.2 6 22.525V47.7875C6 50.1125 7.875 52 10.2 52H53.8C56.1125 52 58 50.1125 58 47.7875V22.525C58 20.2 56.1125 18.375 53.8 18.375ZM32 45.6875C25.6375 45.6875 20.45 40.4875 20.45 34.1125C20.45 27.725 25.6375 22.5375 32 22.5375C38.375 22.5375 43.55 27.725 43.55 34.1125C43.55 40.4875 38.375 45.6875 32 45.6875ZM53.0125 25.0625C52.05 25.0625 51.2625 24.275 51.2625 23.3C51.2625 22.325 52.05 21.5375 53.0125 21.5375C53.975 21.5375 54.7625 22.325 54.7625 23.3C54.7625 24.275 53.975 25.0625 53.0125 25.0625Z" fill="#03193A"/>
<path d="M31.9994 25.3613C27.1744 25.3613 23.2744 29.2738 23.2744 34.1113C23.2744 38.9363 27.1744 42.8613 31.9994 42.8613C36.8119 42.8613 40.7244 38.9488 40.7244 34.1113C40.7244 29.2738 36.8119 25.3613 31.9994 25.3613Z" fill="#03193A"/>
</svg>
