<svg width="24" height="37" viewBox="0 0 24 37" fill="none" xmlns="http://www.w3.org/2000/svg">
<path d="M21.2048 30.8326V18.7675C21.2049 17.9281 21.0978 17.0975 20.8901 16.3267C20.6825 15.5558 20.3786 14.8608 19.9971 14.2844L12.8906 3.54203C12.5327 3.00079 12.0588 2.69922 11.5663 2.69922C11.0737 2.69922 10.5999 3.00079 10.242 3.54203L3.13545 14.2844C2.75397 14.8608 2.4501 15.5558 2.24243 16.3267C2.03476 17.0975 1.92768 17.9281 1.92773 18.7675V30.8326C1.92773 31.6504 2.13083 32.4346 2.49235 33.0129C2.85386 33.5911 3.34418 33.9159 3.85545 33.9159H19.2771C19.7884 33.9159 20.2787 33.5911 20.6402 33.0129C21.0017 32.4346 21.2048 31.6504 21.2048 30.8326Z" stroke="#0A58CA" stroke-width="2" stroke-linecap="round" stroke-linejoin="round"/>
</svg>
