<svg width="24" height="24" viewBox="0 0 24 24" fill="none" xmlns="http://www.w3.org/2000/svg">
<path d="M2.76923 3.69141C1.24062 3.69141 0 4.93202 0 6.46064V17.5376C0 19.0662 1.24062 20.3068 2.76923 20.3068H21.2308C22.7594 20.3068 24 19.0662 24 17.5376V6.46064C24 4.93202 22.7594 3.69141 21.2308 3.69141H2.76923ZM2.76923 5.53756H21.2308C21.7394 5.53756 22.1538 5.95202 22.1538 6.46064V6.92218L12 12.4034L1.84615 6.92218V6.46064C1.84615 5.95202 2.26062 5.53756 2.76923 5.53756ZM1.84615 7.18156L7.87477 11.8837L1.96154 17.9419L9.17354 12.8068L12 14.6243L14.8274 12.8068L22.0385 17.9419L16.1252 11.8837L22.1538 7.18156V17.5376C22.1487 17.6797 22.1091 17.8184 22.0385 17.9419C21.8862 18.2419 21.5898 18.4606 21.2308 18.4606H2.76923C2.41015 18.4606 2.11385 18.2419 1.96154 17.9409C1.891 17.8178 1.85141 17.6794 1.84615 17.5376V7.18156Z" fill="#03193A"/>
</svg>
