<svg width="40" height="40" viewBox="0 0 40 40" fill="none" xmlns="http://www.w3.org/2000/svg">
<circle opacity="0.1" cx="20" cy="20" r="20" fill="#FDFFFC"/>
<path d="M29.6188 14H11.75C11.3356 14 11 13.6644 11 13.25C11 12.8356 11.3356 12.5 11.75 12.5H29.75C30.1644 12.5 30.5 12.1644 30.5 11.75C30.5 10.5073 29.4927 9.5 28.25 9.5H11C9.34297 9.5 8 10.843 8 12.5V27.5C8 29.157 9.34297 30.5 11 30.5H29.6188C30.9322 30.5 32 29.4908 32 28.25V16.25C32 15.0092 30.9322 14 29.6188 14ZM27.5 23.75C26.6717 23.75 26 23.0783 26 22.25C26 21.4217 26.6717 20.75 27.5 20.75C28.3283 20.75 29 21.4217 29 22.25C29 23.0783 28.3283 23.75 27.5 23.75Z" fill="#FDFFFC"/>
</svg>
